# xmcd
#
# Track frame offsets: 
#        150
#        35840
#        76500
#        122850
#        138140
#        165630
#        198955
#        248065
#        303415
#        327425
#
# Disc length: 4410 seconds
#
# Revision: 3
# Processed by: cddbd v1.5.2PL0 Copyright (c) Steve Scherf et al.
# Submitted via: ExactAudioCopy v1.0b6
#
DISCID=7e11380a
DTITLE=The Orb - Icons Of The Orb
DYEAR=1994
DGENRE=Ambient
TTITLE0=Pato Banton - Beams Of Light (Depths Of An Ocean's Love)
TTITLE1=Earth (Gaia) (Live Brixton 91)
TTITLE2=Yellow Magic Orchestra - Tong Poo (Planet Of The Crossing Mix)
TTITLE3=Apollo XI - Peace In The Middle East (Radio Edit)
TTITLE4=Yellow Magic Orchestra - Nanga Def? (Hope You Choke On Your Wh
TTITLE4=ale Meat Mix)
TTITLE5=Zodiac Youth - Fast Forward The Future (Fox's Glacier Hints Mi
TTITLE5=x)
TTITLE6=Killing Joke - Requiem (A Floating Leaf Always Reaches The Sea
TTITLE6=Mix)
TTITLE7=Into The Fourth Dimension (Essenes In Starlight) (Peel Session
TTITLE7=)
TTITLE8=No Fun (Peel Session)
TTITLE9=Unknown Artist - Untitled
EXTD=
EXTT0=
EXTT1=
EXTT2=
EXTT3=
EXTT4=
EXTT5=
EXTT6=
EXTT7=
EXTT8=
EXTT9=
PLAYORDER=
